<?xml version="1.0" encoding="UTF-8" standalone="no"?>
<!-- Generator: Adobe Illustrator 19.2.1, SVG Export Plug-In . SVG Version: 6.00 Build 0)  -->

<svg
   version="1.1"
   id="layer"
   x="0px"
   y="0px"
   viewBox="0 0 60 60"
   xml:space="preserve"
   sodipodi:docname="Qonto.svg"
   width="60"
   height="60"
   inkscape:version="1.2 (dc2aedaf03, 2022-05-15)"
   xmlns:inkscape="http://www.inkscape.org/namespaces/inkscape"
   xmlns:sodipodi="http://sodipodi.sourceforge.net/DTD/sodipodi-0.dtd"
   xmlns="http://www.w3.org/2000/svg"
   xmlns:svg="http://www.w3.org/2000/svg"><defs
   id="defs11" /><sodipodi:namedview
   id="namedview9"
   pagecolor="#ffffff"
   bordercolor="#666666"
   borderopacity="1.0"
   inkscape:pageshadow="2"
   inkscape:pageopacity="0.0"
   inkscape:pagecheckerboard="0"
   showgrid="false"
   width="60px"
   inkscape:zoom="15.14857"
   inkscape:cx="27.065261"
   inkscape:cy="30.464922"
   inkscape:window-width="2560"
   inkscape:window-height="1412"
   inkscape:window-x="2560"
   inkscape:window-y="1080"
   inkscape:window-maximized="1"
   inkscape:current-layer="layer"
   inkscape:showpageshadow="2"
   inkscape:deskcolor="#d1d1d1" />
<style
   type="text/css"
   id="style2">
	.st0{fill:#262A3E;}
	.st1{fill:#6B5AED;}
</style>

<path
   class="st1"
   d="M 12.31047,21.319131 C 16.687726,25.71623 22.509026,28.20943 28.555957,28.662739 28.149818,22.588397 25.622746,16.740708 21.245488,12.343609 16.868231,7.94651 11.227437,5.4533092 5,5 c 0.4061383,6.074343 2.933215,11.922032 7.31047,16.319131 z m 35.379061,0 C 43.312272,25.71623 37.490974,28.20943 31.444043,28.662739 31.850182,22.588397 34.377254,16.740708 38.754513,12.343609 42.906137,7.94651 48.772563,5.4533092 55,5 54.548738,11.074343 52.066786,16.922032 47.689531,21.319131 Z m 0,17.361741 C 43.312272,34.283773 37.490974,31.790573 31.444043,31.337263 31.850182,37.411607 34.377254,43.259295 38.754512,47.656392 43.131767,52.05349 48.953069,54.546691 55,55 54.548738,48.744333 52.066786,42.851317 47.689531,38.680872 Z m -35.379061,0 C 16.687726,34.283773 22.509026,31.790573 28.781589,31.337263 28.375451,37.411607 25.848374,43.259295 21.47112,47.656392 16.868231,52.05349 11.227437,54.592022 5,55 5.4061383,48.744333 7.933215,42.851317 12.31047,38.680872 Z"
   id="path6"
   style="stroke-width:0.452285;fill:#1d1d1b;fill-opacity:1" />
</svg>
